<svg width="34" height="29" viewBox="0 0 34 29" fill="none" xmlns="http://www.w3.org/2000/svg">
<path d="M32.8514 9.76299L8.73082 0.826621C8.4223 0.712613 8.07953 0.870374 7.96578 1.17915C7.96553 1.1794 7.96553 1.17965 7.96528 1.1799L5.29514 8.44814C5.18163 8.75692 5.33989 9.09944 5.64865 9.21295H5.64915L8.44505 10.2395L7.82902 11.9179C7.71576 12.2267 7.87402 12.5687 8.18279 12.6822L13.7756 14.7356L13.3646 15.8544C12.991 16.8565 13.3396 17.9845 14.2136 18.6008V21.6411H6.19768C5.80966 20.754 5.01562 20.1099 4.06732 19.9134V18.6623C4.06732 18.3333 3.8008 18.0666 3.47154 18.0666H1.06966C0.740641 18.0666 0.473877 18.3333 0.473877 18.6623V28.1943C0.473877 28.5235 0.740641 28.79 1.06966 28.79H3.47154C3.8008 28.79 4.06732 28.5235 4.06732 28.1943V26.9434C5.01562 26.7467 5.80966 26.1029 6.19768 25.2155H14.2136V25.8113C14.2136 26.7984 15.0137 27.5987 16.0007 27.5987C16.9878 27.5987 17.7881 26.7984 17.7881 25.8113V19.2116C18.3296 18.9431 18.7479 18.4773 18.9564 17.9098L19.3674 16.791L24.4007 18.6378C24.4664 18.6621 24.5357 18.6743 24.6057 18.6743C24.8554 18.6743 25.0789 18.5186 25.1652 18.2841L25.3885 17.6758C27.3271 18.0406 29.1942 16.7647 29.5587 14.8263C29.6934 14.11 29.6059 13.3697 29.3079 12.7047L32.9194 10.8503C33.2121 10.7003 33.3279 10.3413 33.1779 10.0485C33.1099 9.91549 32.9944 9.81299 32.8544 9.76123L32.8514 9.76299ZM15.4049 19.1436L15.8982 19.3224C16.1227 19.4029 16.3582 19.4492 16.5965 19.4594V21.6411H15.4049V19.1436ZM2.87601 27.5987H1.66544V19.2581H2.87601V27.5987ZM5.25888 24.0242C5.25788 24.7813 4.78086 25.4561 4.06732 25.7096V21.1473C4.78086 21.4005 5.25788 22.0753 5.25888 22.8326V24.0242ZM6.46895 22.8326H16.5965V24.0242H6.46895V22.8326ZM16.0007 26.4071C15.6717 26.4071 15.4049 26.1404 15.4049 25.8113V25.2155H16.5965V25.8113C16.5965 26.1404 16.3297 26.4071 16.0007 26.4071ZM18.2491 16.3807L17.8381 17.4995C17.611 18.1166 16.9268 18.4331 16.3092 18.2066L15.1887 17.796C14.5711 17.5693 14.2541 16.8847 14.4809 16.2669C14.4809 16.2669 14.4809 16.2669 14.4809 16.2667L14.8921 15.1486L17.9118 16.2572L18.2491 16.3807ZM24.2524 17.316L9.15259 11.7711L9.56386 10.6523L18.5113 13.938C18.7231 14.015 18.9606 13.9668 19.1254 13.8128L20.7972 12.2389L25.4845 13.9605L24.2524 17.316ZM28.2804 14.9876C27.9028 16.0054 26.8875 16.6415 25.8072 16.5367L26.7278 14.029L28.2314 13.2547C28.4666 13.8053 28.4841 14.4248 28.2804 14.9876ZM26.2695 12.9277C26.238 12.9305 26.2068 12.936 26.176 12.9442L20.8645 10.9938C20.6527 10.9161 20.4152 10.9643 20.2507 11.1188L18.5768 12.6929L6.61896 8.30163L8.87758 2.15171L31.1678 10.41L26.2695 12.9277Z" fill="#E3B873"/>
<path d="M12.1292 8.70312L11.6038 10.1231M14.419 9.54316L13.8935 10.9631M16.641 10.3696L16.1155 11.7896" stroke="#E3B873" stroke-linecap="round"/>
</svg>
