<svg width="114" height="30" viewBox="0 0 114 30" fill="none" xmlns="http://www.w3.org/2000/svg">
<rect x="0.000671387" y="13.8726" width="32" height="1.54541" rx="0.772705" fill="#E3B873"/>
<rect x="82.0004" y="13.8726" width="32.0001" height="1.54541" rx="0.772705" fill="#E3B873"/>
<path d="M62.4262 9.43118L57.5807 7.97746C57.2169 7.86894 56.843 7.83073 56.4726 7.84427V7.8318H50.5833L40.1395 4.36133L40.171 19.036L43.1691 20.5346L44.9441 16.1951L47.5372 17.2326L48.2096 15.5523L49.1834 16.526L48.2749 17.4347C47.9591 17.7505 47.7782 18.1872 47.7782 18.634C47.7782 19.5483 48.5073 20.2918 49.4142 20.3239C49.4458 21.2101 50.1582 21.9225 51.0444 21.9541C51.076 22.8402 51.7884 23.5526 52.6746 23.5842C52.7073 24.4911 53.4502 25.2202 54.3648 25.2202C54.8114 25.2202 55.2484 25.0393 55.5639 24.7235L56.4726 23.815L56.8377 24.1801C57.1535 24.4959 57.5902 24.6768 58.037 24.6768C58.9517 24.6768 59.6949 23.9477 59.727 23.0408C60.6132 23.0093 61.3256 22.2969 61.3572 21.4107C62.2434 21.3791 62.9558 20.6667 62.9874 19.7805C63.8943 19.7479 64.6237 19.0049 64.6237 18.0906C64.6237 18.0134 64.6112 17.9373 64.6009 17.8606L65.3807 17.0808L66.0109 18.3416L69.4241 16.6348L71.4868 20.5728L73.8616 18.9904V4.94584L62.4262 9.43118ZM42.606 19.0381L41.2568 18.3634L41.2295 5.86865L47.1841 7.84771L42.606 19.0381ZM46.932 15.8197L45.3551 15.1893L48.2178 8.19105L49.7756 8.70896L46.932 15.8197ZM48.865 18.634C48.865 18.4735 48.9295 18.3167 49.043 18.2029L49.9985 17.2477C50.112 17.1341 50.2691 17.0694 50.4294 17.0694C50.7653 17.0694 51.0386 17.3429 51.0386 17.6786C51.0386 17.8388 50.9739 17.9959 50.8603 18.1095L49.9051 19.0649C49.7915 19.1785 49.6344 19.2429 49.4742 19.2429C49.1383 19.2429 48.865 18.9697 48.865 18.634ZM50.4952 20.2642C50.4952 20.1037 50.5597 19.9469 50.6732 19.833L51.6287 18.8779C51.7423 18.7643 51.8993 18.6996 52.0596 18.6996C52.3955 18.6996 52.6688 18.9731 52.6688 19.3087C52.6688 19.469 52.6041 19.6261 52.4905 19.7396L51.5353 20.6951C51.4217 20.8086 51.2647 20.8731 51.1044 20.8731C50.7685 20.8731 50.4952 20.5998 50.4952 20.2642ZM52.1254 21.8944C52.1254 21.7338 52.1899 21.577 52.3034 21.4632L53.2589 20.508C53.3725 20.3945 53.5296 20.3297 53.6898 20.3297C54.0257 20.3297 54.299 20.6033 54.299 20.9389C54.299 21.0992 54.2343 21.2562 54.1207 21.3698L53.1655 22.3252C53.052 22.4388 52.8949 22.5033 52.7346 22.5033C52.3987 22.5033 52.1254 22.23 52.1254 21.8944ZM55.7509 23L54.7957 23.9554C54.6822 24.069 54.5251 24.1334 54.3648 24.1334C54.0289 24.1334 53.7556 23.8602 53.7556 23.5245C53.7556 23.364 53.8201 23.2072 53.9337 23.0934L54.8891 22.1382C55.0027 22.0246 55.1598 21.9599 55.32 21.9599C55.6559 21.9599 55.9292 22.2334 55.9292 22.5691C55.9292 22.7293 55.8645 22.8864 55.7509 23ZM62.9277 18.6996C62.7674 18.6996 62.6103 18.6351 62.4968 18.5215L57.9437 13.9683L57.1752 14.7366L61.7284 19.2896C61.8419 19.4035 61.9067 19.5603 61.9067 19.7208C61.9067 20.0564 61.6334 20.3297 61.2975 20.3297C61.1372 20.3297 60.9801 20.2652 60.8666 20.1517L56.3134 15.5984L55.545 16.3668L60.0982 20.9198C60.2117 21.0336 60.2765 21.1904 60.2765 21.351C60.2765 21.6866 60.0032 21.9599 59.6673 21.9599C59.507 21.9599 59.3499 21.8954 59.2364 21.7819L54.6832 17.2286L53.9148 17.997L58.468 22.55C58.5815 22.6638 58.6463 22.8206 58.6463 22.9811C58.6463 23.3168 58.373 23.5901 58.037 23.5901C57.8768 23.5901 57.7197 23.5256 57.6061 23.412L56.9932 22.7988C57.0041 22.723 57.016 22.6468 57.016 22.5691C57.016 21.6545 56.2866 20.9113 55.3797 20.8792C55.3482 19.993 54.6357 19.2806 53.7495 19.249C53.7179 18.3629 53.0055 17.6505 52.1193 17.6189C52.0867 16.712 51.344 15.9826 50.4294 15.9826C50.3522 15.9826 50.276 15.9951 50.1996 16.0054L48.6482 14.4541L50.8629 8.91857H54.074L52.0787 10.9141C51.7579 11.2341 51.582 11.6602 51.582 12.1134C51.582 13.0484 52.3427 13.8091 53.278 13.8091C53.7246 13.8091 54.1616 13.6281 54.4771 13.3124L55.9168 11.8724C56.2113 11.579 56.73 11.5676 57.0367 11.8486L58.3072 13.0131C58.7293 13.3999 59.1984 13.7218 59.7004 13.9738L63.3586 17.6595C63.4722 17.7733 63.5369 17.9301 63.5369 18.0906C63.5369 18.4263 63.2636 18.6996 62.9277 18.6996ZM64.0803 16.8444L61.8467 14.5939C62.0462 14.6127 62.2474 14.6241 62.4501 14.6241V13.5374C61.185 13.5374 59.9743 13.0664 59.0419 12.2115L57.7712 11.0475C57.054 10.389 55.8374 10.4153 55.1489 11.1046L53.7094 12.5443C53.5954 12.6573 53.4383 12.7223 53.278 12.7223C52.9421 12.7223 52.6688 12.449 52.6688 12.1134C52.6688 11.9502 52.7317 11.7976 52.8468 11.6822L54.9183 9.61107C55.527 9.00241 56.4411 8.77079 57.2681 9.0186L62.0685 10.4585L64.8675 16.0572L64.0803 16.8444ZM66.4967 16.8837L63.202 10.294L65.6084 9.34999L68.9197 15.6719L66.4967 16.8837ZM72.7748 18.409L71.8888 18.9996L66.6262 8.95121L72.7748 6.53966V18.409Z" fill="#E3B873"/>
<circle cx="59.6669" cy="1.57348" r="0.485591" fill="#E3B873"/>
<circle cx="47.4101" cy="24.5027" r="0.485591" fill="#E3B873"/>
<circle cx="49.4682" cy="26.1912" r="0.485591" fill="#E3B873"/>
<circle cx="51.8168" cy="27.4299" r="0.485591" fill="#E3B873"/>
<circle cx="54.3656" cy="28.2224" r="0.485591" fill="#E3B873"/>
<circle cx="62.2143" cy="2.34643" r="0.485591" fill="#E3B873"/>
<circle cx="64.5634" cy="3.60083" r="0.485591" fill="#E3B873"/>
<path d="M66.8307 2.89893V5.70062H63.9972" stroke="#E3B873" stroke-linecap="round" stroke-linejoin="round"/>
<path d="M45.0106 24.186L45.0106 21.9192L47.2746 21.9192" stroke="#E3B873" stroke-linecap="round" stroke-linejoin="round"/>
<path d="M47.801 4.88194C49.3361 3.54613 50.3126 2.93156 52.1521 2.21331C54.1034 1.45137 55.4238 1.27245 57.5443 1.27246" stroke="#E3B873" stroke-linecap="round"/>
<path d="M68.4047 22.3704C67.2635 24.1506 65.1378 25.8888 63.4091 26.8432C61.5752 27.8558 59.6104 28.4263 56.9933 28.5627" stroke="#E3B873" stroke-linecap="round"/>
</svg>
