<svg width="28" height="29" viewBox="0 0 28 29" fill="none" xmlns="http://www.w3.org/2000/svg">
<circle cx="14" cy="14.1943" r="14" fill="#E3B873"/>
<path d="M17 8.59277H11C9.34314 8.59277 8 9.93614 8 11.5933V17.5942C8 19.2514 9.34314 20.5947 11 20.5947H17C18.6568 20.5947 19.9999 19.2514 19.9999 17.5942V11.5933C19.9999 9.93614 18.6568 8.59277 17 8.59277Z" stroke="white" stroke-width="1.5"/>
<path d="M16.4 14.2157C16.474 14.7152 16.3888 15.2254 16.1563 15.6736C15.9238 16.1219 15.5559 16.4854 15.105 16.7124C14.6541 16.9395 14.1431 17.0185 13.6447 16.9383C13.1463 16.858 12.6859 16.6226 12.3289 16.2655C11.972 15.9085 11.7367 15.4479 11.6565 14.9493C11.5763 14.4507 11.6553 13.9395 11.8822 13.4885C12.1092 13.0374 12.4725 12.6694 12.9206 12.4368C13.3687 12.2042 13.8787 12.1189 14.378 12.193C14.8874 12.2685 15.3589 12.506 15.723 12.8702C16.0871 13.2344 16.3245 13.7062 16.4 14.2157Z" stroke="white" stroke-width="1.5" stroke-linecap="round" stroke-linejoin="round"/>
</svg>
