<svg width="114" height="29" viewBox="0 0 114 29" fill="none" xmlns="http://www.w3.org/2000/svg">
<rect x="0.000488281" y="13.2163" width="31.9999" height="1.54199" rx="0.770996" fill="#E3B873"/>
<rect x="82.0005" y="13.2163" width="32.0001" height="1.54199" rx="0.770996" fill="#E3B873"/>
<path d="M64.8924 22.0511C64.1458 22.7511 64.1458 23.9176 64.8924 24.6642C65.2658 25.0375 65.7324 25.2241 66.1991 25.2241C66.6657 25.2241 67.1324 25.0375 67.5057 24.6642C68.2523 23.9643 68.2523 22.7978 67.5057 22.0511C66.8058 21.3046 65.6391 21.3046 64.8924 22.0511ZM66.8524 24.0576C66.4791 24.4309 65.9191 24.4309 65.5458 24.0576C65.1725 23.6842 65.1724 23.1243 65.5458 22.7511C65.7324 22.5644 65.9658 22.4711 66.1991 22.4711C66.4325 22.4711 66.6658 22.5644 66.8525 22.7511C67.2258 23.1244 67.2258 23.6843 66.8524 24.0576Z" fill="#E3B873"/>
<path d="M70.6797 22.6128L62.2797 14.2129L65.593 10.8995L65.5931 10.8995L67.553 8.93952L67.5531 8.93947L70.3997 6.09288C71.193 5.29953 71.193 3.99288 70.3997 3.19953L68.0197 0.819538C67.6464 0.446242 67.133 0.212891 66.573 0.212891C66.013 0.212891 65.4997 0.446242 65.1264 0.819538L62.2797 3.66618L60.3197 5.62618L57.0064 8.93952L48.6997 0.63289C48.1863 0.119539 47.253 0.119539 46.7396 0.63289L43.4263 3.94623C42.8663 4.45959 42.8663 5.34623 43.4263 5.90623L44.4063 6.88623L47.0664 9.54622L49.6797 12.1595C49.6797 12.1595 49.6797 12.1595 49.6797 12.1596L51.733 14.2129L44.2416 21.7043C44.1019 21.7659 44.0266 21.8918 43.9863 22.0528L43.0063 27.6528C43.0063 27.8395 43.053 27.9795 43.1463 28.0728C43.2396 28.1662 43.333 28.2128 43.473 28.2128C43.5196 28.2128 43.5196 28.2128 43.5663 28.2128L48.9501 27.2175C48.9873 27.2274 49.0275 27.2328 49.073 27.2328C49.213 27.2328 49.353 27.1862 49.3997 27.0928L57.0063 19.4862L57.613 20.0929C57.613 20.0929 57.613 20.0929 57.613 20.0929L57.6131 20.093L58.9197 21.3996C58.9197 21.3996 58.9197 21.3996 58.9197 21.3996L58.9198 21.3997L65.4064 27.8862C65.6397 28.1196 65.9197 28.2129 66.1997 28.2129C66.4797 28.2129 66.7597 28.1195 66.9464 27.8862L70.6797 24.1529C71.0997 23.7328 71.0997 23.0328 70.6797 22.6128ZM49.073 26.0662L47.4401 24.4333L62.9559 8.96238L64.5664 10.5729L49.073 26.0662ZM65.7797 1.47289C66.1997 1.05289 66.9463 1.05289 67.3663 1.47289L69.7463 3.85288C70.1663 4.27288 70.1663 5.01953 69.7463 5.43953L67.2263 7.95952L63.2597 3.99288L65.7797 1.47289ZM62.6064 4.64623L64.5897 6.62958L66.573 8.61287L65.2664 9.91952L61.2997 5.95288L62.6064 4.64623ZM51.9897 13.1629L52.993 12.1595C53.1797 11.9729 53.1797 11.6929 52.993 11.5062C52.8064 11.3195 52.5264 11.3195 52.3397 11.5062L51.3363 12.5095L50.6597 11.8329L52.293 10.1995C52.4797 10.0129 52.4797 9.73287 52.293 9.54617C52.1064 9.35947 51.8264 9.35952 51.6397 9.54617L50.0063 11.1795L49.3529 10.5262L50.333 9.54617C50.5196 9.35952 50.5196 9.07952 50.333 8.89282C50.1463 8.70612 49.8663 8.70617 49.6796 8.89282L48.6996 9.87282L48.0462 9.21947L49.6796 7.58612C49.8662 7.39947 49.8662 7.11947 49.6796 6.93277C49.4929 6.74607 49.2129 6.74612 49.0262 6.93277L47.393 8.56623L46.693 7.86623L47.673 6.88623C47.8597 6.69958 47.8597 6.41958 47.673 6.23288C47.4864 6.04618 47.2064 6.04623 47.0196 6.23288L46.0396 7.21288L45.3863 6.55953L47.0196 4.92618C47.2063 4.73953 47.2063 4.45953 47.0196 4.27283C46.833 4.08613 46.553 4.08618 46.3663 4.27283L44.733 5.90623L44.0796 5.25288C43.893 5.06623 43.893 4.78623 44.0796 4.59953L47.393 1.28624C47.4864 1.19289 47.5796 1.14624 47.7196 1.14624C47.813 1.14624 47.953 1.19289 48.0463 1.28624L56.353 9.59287L52.3864 13.5595L51.9897 13.1629ZM60.6464 6.65288L62.2792 8.28573L46.7635 23.7567L45.153 22.1462L60.6464 6.65288ZM44.7796 23.0795L46.3107 24.6105C46.334 24.6638 46.3679 24.7144 46.413 24.7595L48.0999 26.4463L44.0797 27.1394L44.7796 23.0795ZM70.0264 23.4995L66.293 27.2328C66.2464 27.2795 66.1064 27.2795 66.0597 27.2328L61.2297 22.4028L62.8863 20.7462C63.073 20.5596 63.073 20.2796 62.8863 20.0929C62.6997 19.9062 62.4197 19.9062 62.233 20.0929L60.5763 21.7495L59.8997 21.0729L60.8797 20.0929C61.0663 19.9062 61.0663 19.6262 60.8797 19.4395C60.693 19.2529 60.413 19.2529 60.2263 19.4395L59.2463 20.4195L58.593 19.7661L60.2263 18.1328C60.413 17.9462 60.413 17.6662 60.2263 17.4795C60.0397 17.2928 59.7597 17.2928 59.573 17.4795L57.9397 19.1129L57.6597 18.8329L61.6263 14.8662L70.0263 23.2662C70.073 23.3128 70.073 23.4528 70.0264 23.4995Z" fill="#E3B873"/>
</svg>
