<svg width="113" height="113" viewBox="0 0 113 113" fill="none" xmlns="http://www.w3.org/2000/svg">
<g filter="url(#filter0_d)">
<ellipse cx="56.5" cy="46.4426" rx="36" ry="35.9998" fill="#E3B873"/>
</g>
<path d="M56.8394 53.7225C56.461 53.7225 56.1521 54.0215 56.1521 54.3932V55.7172C56.1521 56.0888 56.461 56.3879 56.8394 56.3879C57.2177 56.3879 57.5266 56.0888 57.5266 55.7172V54.3932C57.5266 54.0215 57.2177 53.7225 56.8394 53.7225Z" fill="white" stroke="white" stroke-width="0.1"/>
<path d="M73.5581 44.4427L73.5581 44.4426C73.1069 42.2847 72.0951 40.2505 70.6321 38.5598C69.2237 36.9321 67.4214 35.6508 65.4118 34.8431C65.0828 33.507 64.3927 32.1293 63.0386 31.0919C61.7205 30.082 60.3931 29.8874 60.3338 29.8791L60.3338 29.8791C60.1374 29.8518 59.9377 29.9087 59.7872 30.036C59.6366 30.1634 59.5498 30.3484 59.5498 30.5434V33.8471H57.3254C56.736 31.9329 54.9142 30.5348 52.7634 30.5348C50.5652 30.5348 48.7096 31.9949 48.1632 33.9741C45.0152 34.3998 42.1197 35.8906 39.9692 38.2043L40.0059 38.2383L39.9692 38.2043C37.7 40.6459 36.45 43.8069 36.45 47.1049C36.45 54.4949 40.3839 60.5054 41.5891 62.1711C41.9705 62.6982 42.5945 63.0124 43.2582 63.0124H45.9692C47.0961 63.0124 48.015 62.1182 48.015 61.0164V60.2147C48.6849 60.3125 49.3649 60.3625 50.0457 60.3625H56.1528V61.0164C56.1528 62.1182 57.0717 63.0124 58.1986 63.0124H61.1765C62.134 63.0124 62.9757 62.3499 63.1767 61.4349L63.4969 59.9783C67.673 58.9767 71.0324 56.12 72.6959 52.4132H75.1837C75.9359 52.4132 76.55 51.8163 76.55 51.0797V45.78C76.55 45.4233 76.4075 45.0882 76.1493 44.8364C75.8912 44.5848 75.5483 44.4464 75.1838 44.4464H75.1837H75.1837H75.1837H75.1836H75.1836H75.1836H75.1835L73.5592 44.4466C73.5587 44.4453 73.5584 44.444 73.5581 44.4427ZM75.1762 51.0296H75.1761V51.071H73.2111C73.5469 50.0274 73.7538 48.9315 73.8138 47.8021C73.8337 47.4308 73.5411 47.1162 73.1633 47.0971C72.7857 47.0785 72.4615 47.3612 72.4418 47.7325C72.1746 52.7553 68.6861 57.0491 63.8218 58.4995L64.6936 54.5329C64.7736 54.1693 64.5358 53.8132 64.1657 53.7359C63.7961 53.6584 63.4301 53.888 63.3503 54.2512L61.8334 61.1531C61.7678 61.4517 61.4919 61.6702 61.1765 61.6702H58.1984C57.8268 61.6702 57.5266 61.3757 57.5266 61.0163V58.3665C57.5266 57.9947 57.2178 57.6954 56.8396 57.6954C56.4614 57.6954 56.1527 57.9947 56.1527 58.3665V59.0203H50.0455C49.3637 59.0203 48.6831 58.9644 48.0148 58.8556V54.3919C48.0148 54.02 47.7061 53.7208 47.3279 53.7208C46.9497 53.7208 46.6409 54.02 46.6409 54.3919V61.0164C46.6409 61.3757 46.3407 61.6703 45.9691 61.6703H43.2582C43.0355 61.6703 42.8366 61.5702 42.7111 61.3965L42.7111 61.3965C41.5641 59.8112 37.8239 54.097 37.8239 47.1048C37.8239 44.1412 38.9469 41.3007 40.9864 39.1065L40.9498 39.0724L40.9864 39.1065C42.8401 37.112 45.3092 35.7977 48.0037 35.3555C48.0187 35.7435 48.0834 36.1271 48.195 36.4969H48.0074C47.6292 36.4969 47.3205 36.7961 47.3205 37.168C47.3205 37.5398 47.6292 37.839 48.0074 37.839H57.5191C57.8974 37.839 58.2061 37.5398 58.2061 37.168C58.2061 36.7961 57.8974 36.4969 57.5191 36.4969H57.3315C57.4592 36.0743 57.5258 35.6338 57.5266 35.1892H59.5498V36.5055C59.5498 36.8773 59.8585 37.1765 60.2367 37.1765C60.6149 37.1765 60.9237 36.8773 60.9237 36.5055V31.4312C61.5183 31.6604 62.343 32.1089 63.0288 32.9644C63.7404 33.852 64.3056 35.1814 64.3056 37.168C64.3056 37.5398 64.6144 37.8391 64.9926 37.8391C65.3708 37.8391 65.6795 37.5398 65.6795 37.168C65.6795 36.9301 65.6716 36.6803 65.6536 36.4224C67.1527 37.1473 68.4978 38.1724 69.5829 39.4264C70.8977 40.9459 71.8068 42.7734 72.212 44.7113C72.3426 45.3362 72.9049 45.7889 73.5487 45.7888L75.1762 45.7887V51.0296ZM52.7633 31.877C54.6334 31.877 56.1527 33.3603 56.1527 35.1808C56.1527 35.6356 56.0552 36.0839 55.871 36.497H49.6555C49.4714 36.0838 49.3737 35.6356 49.3737 35.1808C49.3737 33.3602 50.8931 31.877 52.7633 31.877Z" fill="white" stroke="white" stroke-width="0.1"/>
<path d="M64.4116 44.8832L64.4116 44.8832C64.815 43.8277 65.8807 43.1209 67.0621 43.1209C68.2433 43.1209 69.3092 43.8278 69.7124 44.8832C69.8456 45.2316 69.6635 45.6182 69.3085 45.7473M64.4116 44.8832L65.6986 45.353C65.9011 44.8231 66.4479 44.4638 67.062 44.4638C67.676 44.4638 68.223 44.8231 68.4254 45.353C68.5288 45.6236 68.7912 45.7897 69.069 45.7897C69.1487 45.7897 69.2296 45.7761 69.3085 45.7473M64.4116 44.8832C64.2784 45.2317 64.4605 45.6182 64.8155 45.7473M64.4116 44.8832L64.8155 45.7473M69.3085 45.7473L69.2914 45.7004M69.3085 45.7473C69.3085 45.7473 69.3085 45.7473 69.3085 45.7473L69.2914 45.7004M69.2914 45.7004C69.621 45.5805 69.7886 45.2225 69.6657 44.901L67.062 44.4138C67.6948 44.4138 68.2616 44.7841 68.4721 45.3352C68.5677 45.5853 68.8106 45.7397 69.069 45.7397C69.143 45.7397 69.2181 45.727 69.2914 45.7004ZM64.8155 45.7473C65.17 45.8764 65.5657 45.7009 65.6986 45.353L64.8155 45.7473Z" fill="white" stroke="white" stroke-width="0.1"/>
<path d="M55.7121 47.518C55.0606 47.0763 54.2204 46.8057 53.4505 46.5934V43.5149C54.0454 43.592 54.5488 43.7643 54.9051 43.9771C55.2763 44.1987 55.4738 44.4549 55.4738 44.6834C55.4738 45.0551 55.7826 45.3543 56.1608 45.3543C56.5391 45.3543 56.8479 45.0551 56.8479 44.6834C56.8479 44.0279 56.4737 43.4418 55.8594 42.9987C55.2545 42.5624 54.4131 42.2614 53.4505 42.1636V42.1375C53.4505 41.7658 53.1417 41.4666 52.7634 41.4666C52.3852 41.4666 52.0764 41.7658 52.0764 42.1375V42.1636C51.1138 42.2614 50.2724 42.5624 49.6675 42.9987C49.0531 43.4418 48.679 44.0279 48.679 44.6834C48.679 45.6108 49.1506 46.2416 49.8148 46.6919C50.4663 47.1336 51.3064 47.4043 52.0764 47.6166V50.6951C51.4814 50.6179 50.9781 50.4457 50.6217 50.2329C50.2505 50.0113 50.053 49.755 50.053 49.5266C50.053 49.1548 49.7443 48.8557 49.366 48.8557C48.9878 48.8557 48.679 49.1548 48.679 49.5266C48.679 50.1821 49.0531 50.7681 49.6675 51.2113C50.2724 51.6476 51.1138 51.9486 52.0764 52.0464V52.0724C52.0764 52.4442 52.3852 52.7434 52.7634 52.7434C53.1417 52.7434 53.4505 52.4442 53.4505 52.0724V52.0464C54.4131 51.9486 55.2545 51.6476 55.8594 51.2113C56.4737 50.7681 56.8479 50.1821 56.8479 49.5266C56.8479 48.5992 56.3763 47.9684 55.7121 47.518ZM52.0764 43.5149V46.2107C51.3286 45.9784 50.8248 45.7573 50.5066 45.5159C50.1827 45.2702 50.053 45.0054 50.053 44.6834C50.053 44.4549 50.2505 44.1987 50.6217 43.9771C50.9781 43.7643 51.4814 43.592 52.0764 43.5149ZM54.9051 50.233C54.5488 50.4457 54.0454 50.618 53.4505 50.6951V47.9994C54.1982 48.2316 54.702 48.4527 55.0203 48.6941C55.3442 48.9398 55.4738 49.2046 55.4738 49.5267C55.4738 49.7551 55.2763 50.0114 54.9051 50.233Z" fill="white" stroke="white" stroke-width="0.1"/>
<defs>
<filter id="filter0_d" x="0.5" y="0.442871" width="112" height="112" filterUnits="userSpaceOnUse" color-interpolation-filters="sRGB">
<feFlood flood-opacity="0" result="BackgroundImageFix"/>
<feColorMatrix in="SourceAlpha" type="matrix" values="0 0 0 0 0 0 0 0 0 0 0 0 0 0 0 0 0 0 127 0"/>
<feOffset dy="10"/>
<feGaussianBlur stdDeviation="10"/>
<feColorMatrix type="matrix" values="0 0 0 0 0.929412 0 0 0 0 0.752941 0 0 0 0 0.470588 0 0 0 0.2 0"/>
<feBlend mode="normal" in2="BackgroundImageFix" result="effect1_dropShadow"/>
<feBlend mode="normal" in="SourceGraphic" in2="effect1_dropShadow" result="shape"/>
</filter>
</defs>
</svg>
