<svg width="33" height="33" viewBox="0 0 33 33" fill="none" xmlns="http://www.w3.org/2000/svg">
<path fill-rule="evenodd" clip-rule="evenodd" d="M3.25031 1.25013C3.25031 1.03917 3.42854 0.868164 3.6484 0.868164H32.3115C32.5314 0.868164 32.7096 1.03917 32.7096 1.25013V28.8788C32.7096 29.0897 32.5314 29.2607 32.3115 29.2607C32.0916 29.2607 31.9134 29.0897 31.9134 28.8788V1.63209H3.6484C3.42854 1.63209 3.25031 1.46108 3.25031 1.25013Z" fill="white" stroke="white" stroke-width="0.5" stroke-linecap="round" stroke-linejoin="round"/>
<path d="M5.41897 7.17923L5.50736 7.09084L5.41897 7.17923C5.62203 7.38227 5.95124 7.38227 6.1543 7.17923L6.06591 7.09084L6.1543 7.17923C6.35736 6.97618 6.35736 6.64697 6.1543 6.44393L3.6408 3.9306L3.55242 4.01899L3.6408 3.9306C3.43775 3.72756 3.10853 3.72756 2.90548 3.9306L2.99386 4.01899L2.90548 3.9306L0.391979 6.44393C0.188919 6.64697 0.188919 6.97618 0.391979 7.17923L0.39198 7.17923C0.595035 7.38227 0.924249 7.38227 1.1273 7.17923L2.75318 5.55346L2.75318 29.3105L2.75318 29.4355L2.87818 29.4355L3.6681 29.4355L3.7931 29.4355L3.7931 29.3105L3.7931 5.55346L5.41897 7.17923Z" fill="white" stroke="white" stroke-width="0.25"/>
<path d="M26.7601 29.8283L25.1262 31.4525C24.922 31.6555 24.922 31.9849 25.1262 32.1879C25.33 32.3905 25.6601 32.3905 25.8639 32.1879L28.3905 29.6763C28.5947 29.4733 28.5947 29.1439 28.3905 28.9409L25.8639 26.4293C25.6601 26.2267 25.33 26.2267 25.1262 26.4293C24.922 26.6323 24.922 26.9617 25.1262 27.1647L26.7601 28.7889L2.8772 28.7889H2.7522V28.9139V29.7033V29.8283H2.8772L26.7601 29.8283Z" fill="white" stroke="white" stroke-width="0.25"/>
<path fill-rule="evenodd" clip-rule="evenodd" d="M14.1624 0.984006C14.3167 1.13846 14.3167 1.38888 14.1624 1.54334L9.42295 6.28943C9.26871 6.44389 9.01864 6.44389 8.8644 6.28943C8.71016 6.13498 8.71016 5.88455 8.8644 5.7301L13.6039 0.984006C13.7581 0.82955 14.0082 0.82955 14.1624 0.984006Z" fill="white" stroke="white" stroke-width="0.5" stroke-linecap="round" stroke-linejoin="round"/>
<path fill-rule="evenodd" clip-rule="evenodd" d="M32.4622 19.8139C32.6165 19.9681 32.6165 20.2181 32.4622 20.3723L28.1177 24.7154C27.9635 24.8696 27.7134 24.8696 27.5592 24.7154C27.4049 24.5612 27.4049 24.3112 27.5592 24.157L31.9037 19.8139C32.0579 19.6597 32.308 19.6597 32.4622 19.8139Z" fill="white" stroke="white" stroke-width="0.5" stroke-linecap="round" stroke-linejoin="round"/>
<path fill-rule="evenodd" clip-rule="evenodd" d="M20.0851 0.982071C20.2403 1.13533 20.2419 1.38539 20.0887 1.54061L9.81975 11.9411C9.66649 12.0963 9.41642 12.0979 9.2612 11.9447C9.10598 11.7914 9.10439 11.5414 9.25765 11.3861L19.5266 0.985629C19.6798 0.830409 19.9299 0.828817 20.0851 0.982071Z" fill="white" stroke="white" stroke-width="0.5" stroke-linecap="round" stroke-linejoin="round"/>
<path fill-rule="evenodd" clip-rule="evenodd" d="M32.5938 13.23C32.7481 13.3843 32.7481 13.6345 32.5938 13.7888L22.5882 23.7983C22.434 23.9526 22.1839 23.9526 22.0297 23.7983C21.8754 23.644 21.8754 23.3939 22.0297 23.2396L32.0353 13.23C32.1895 13.0757 32.4396 13.0757 32.5938 13.23Z" fill="white" stroke="white" stroke-width="0.5" stroke-linecap="round" stroke-linejoin="round"/>
<path fill-rule="evenodd" clip-rule="evenodd" d="M26.4084 1.12477C26.5614 1.28023 26.5594 1.53027 26.4039 1.68324L9.94736 17.8749C9.79188 18.0278 9.54182 18.0258 9.38883 17.8703C9.23584 17.7149 9.23785 17.4648 9.39333 17.3119L25.8499 1.12026C26.0054 0.967286 26.2554 0.969302 26.4084 1.12477Z" fill="white" stroke="white" stroke-width="0.5" stroke-linecap="round" stroke-linejoin="round"/>
<path fill-rule="evenodd" clip-rule="evenodd" d="M32.5939 7.04342C32.7482 7.19767 32.7482 7.44775 32.5939 7.602L16.0057 24.191C15.8515 24.3452 15.6014 24.3452 15.4472 24.191C15.2929 24.0367 15.2929 23.7866 15.4472 23.6324L32.0354 7.04342C32.1896 6.88917 32.4397 6.88917 32.5939 7.04342Z" fill="white" stroke="white" stroke-width="0.5" stroke-linecap="round" stroke-linejoin="round"/>
<path fill-rule="evenodd" clip-rule="evenodd" d="M32.3306 1.12249C32.4849 1.27671 32.4849 1.52673 32.3306 1.68094L9.68638 24.3209C9.53214 24.4751 9.28207 24.4751 9.12783 24.3209C8.97359 24.1667 8.97359 23.9166 9.12783 23.7624L31.7721 1.12249C31.9263 0.968283 32.1764 0.968283 32.3306 1.12249Z" fill="white" stroke="white" stroke-width="0.5" stroke-linecap="round" stroke-linejoin="round"/>
</svg>
