<svg width="34" height="33" viewBox="0 0 34 33" fill="none" xmlns="http://www.w3.org/2000/svg">
<path d="M24.6002 3.06807C24.3374 1.81467 23.1962 0.868164 21.8313 0.868164C21.5193 0.868164 21.2661 1.114 21.2661 1.41814C21.2661 1.72228 21.5193 1.96812 21.8313 1.96812C22.7661 1.96812 23.5269 2.70838 23.5269 3.61804C23.5269 4.5277 22.7661 5.26797 21.8313 5.26797C21.5193 5.26797 21.2661 5.51381 21.2661 5.81795C21.2661 6.12208 21.5193 6.36792 21.8313 6.36792C23.1957 6.36792 24.3374 5.42142 24.6002 4.16802H32.0047V9.1178H1.48439V4.16802H9.39707H11.0926C11.4046 4.16802 11.6578 3.92218 11.6578 3.61804C11.6578 3.31391 11.4046 3.06807 11.0926 3.06807H10.0663C10.3003 2.429 10.922 1.96812 11.6578 1.96812C12.5927 1.96812 13.3534 2.70838 13.3534 3.61804C13.3534 4.5277 12.5927 5.26797 11.6578 5.26797C11.3459 5.26797 11.0926 5.51381 11.0926 5.81795C11.0926 6.12208 11.3459 6.36792 11.6578 6.36792C13.2161 6.36792 14.4838 5.13433 14.4838 3.61804C14.4838 2.10176 13.2161 0.868164 11.6578 0.868164C10.2935 0.868164 9.15178 1.81467 8.88897 3.06807H0.354004V10.2178V32.2168H33.1351V10.2178V3.06807H24.6002ZM32.0047 31.1168H1.48439V10.2178H32.0047V31.1168Z" fill="white"/>
<path d="M15.0491 1.96953C15.9839 1.96953 16.7446 2.71075 16.7446 3.62158C16.7446 4.53241 15.9839 5.27363 15.0491 5.27363C14.7371 5.27363 14.4839 5.51979 14.4839 5.82432C14.4839 6.12884 14.7371 6.375 15.0491 6.375C16.6073 6.375 17.875 5.13982 17.875 3.62158C17.875 2.10335 16.6073 0.868164 15.0491 0.868164C14.7371 0.868164 14.4839 1.11432 14.4839 1.41885C14.4839 1.72338 14.7371 1.96953 15.0491 1.96953Z" fill="white"/>
<path d="M18.4402 1.96953C19.375 1.96953 20.1357 2.71075 20.1357 3.62158C20.1357 4.53241 19.375 5.27363 18.4402 5.27363C18.1282 5.27363 17.875 5.51979 17.875 5.82432C17.875 6.12884 18.1282 6.375 18.4402 6.375C19.9984 6.375 21.2661 5.13982 21.2661 3.62158C21.2661 2.10335 19.9984 0.868164 18.4402 0.868164C18.1282 0.868164 17.875 1.11432 17.875 1.41885C17.875 1.72338 18.1282 1.96953 18.4402 1.96953Z" fill="white"/>
<path d="M5.44092 14.6191H17.875C18.187 14.6191 18.4402 14.3743 18.4402 14.0713C18.4402 13.7683 18.187 13.5234 17.875 13.5234H5.44092C5.12894 13.5234 4.87573 13.7683 4.87573 14.0713C4.87573 14.3743 5.12894 14.6191 5.44092 14.6191Z" fill="white"/>
<path d="M28.0485 22.3174H19.5706C19.2586 22.3174 19.0054 22.5636 19.0054 22.8682C19.0054 23.1727 19.2586 23.4189 19.5706 23.4189H28.0485C28.3604 23.4189 28.6136 23.1727 28.6136 22.8682C28.6136 22.5636 28.3604 22.3174 28.0485 22.3174Z" fill="white"/>
<path d="M5.44092 19.0244H11.0928C11.4048 19.0244 11.658 18.7767 11.658 18.4702C11.658 18.1637 11.4048 17.916 11.0928 17.916H5.44092C5.12894 17.916 4.87573 18.1637 4.87573 18.4702C4.87573 18.7767 5.12894 19.0244 5.44092 19.0244Z" fill="white"/>
<path d="M28.0486 26.7188H22.3966C22.0846 26.7188 21.8314 26.9636 21.8314 27.2666C21.8314 27.5696 22.0846 27.8145 22.3966 27.8145H28.0486C28.3606 27.8145 28.6138 27.5696 28.6138 27.2666C28.6138 26.9636 28.3606 26.7188 28.0486 26.7188Z" fill="white"/>
<path d="M16.1794 18.4702C16.1794 18.7767 16.4326 19.0244 16.7446 19.0244H25.2225C25.5345 19.0244 25.7877 18.7767 25.7877 18.4702C25.7877 18.1637 25.5345 17.916 25.2225 17.916H16.7446C16.4326 17.916 16.1794 18.1637 16.1794 18.4702Z" fill="white"/>
<path d="M14.32 18.8637C14.4217 18.7591 14.4839 18.6158 14.4839 18.4726C14.4839 18.3289 14.4217 18.1857 14.32 18.0816C14.1109 17.8778 13.7265 17.8778 13.5174 18.0816C13.4157 18.1857 13.3535 18.3289 13.3535 18.4726C13.3535 18.6158 13.4157 18.7591 13.5174 18.8637C13.6248 18.9678 13.7718 19.0234 13.9187 19.0234C14.0656 19.0234 14.2126 18.9678 14.32 18.8637Z" fill="white"/>
<path d="M7.70154 22.8682C7.70154 23.1727 7.95474 23.4189 8.26673 23.4189H16.7446C17.0566 23.4189 17.3098 23.1727 17.3098 22.8682C17.3098 22.5636 17.0566 22.3174 16.7446 22.3174H8.26673C7.95474 22.3174 7.70154 22.5636 7.70154 22.8682Z" fill="white"/>
<path d="M5.44086 23.418C5.58779 23.418 5.73472 23.3573 5.8421 23.258C5.94382 23.1532 6.00598 23.0098 6.00598 22.8663C6.00598 22.7223 5.94382 22.5789 5.8421 22.4802C5.633 22.2706 5.24871 22.2706 5.03962 22.4747C4.9379 22.5789 4.87573 22.7223 4.87573 22.8663C4.87573 23.0098 4.9379 23.1532 5.03962 23.258C5.14699 23.3573 5.28827 23.418 5.44086 23.418Z" fill="white"/>
<path d="M28.0485 19.0234C28.1954 19.0234 28.3424 18.9678 28.4497 18.8637C28.5571 18.7591 28.6136 18.6158 28.6136 18.4726C28.6136 18.3289 28.5571 18.1857 28.4497 18.0816C28.235 17.8778 27.8563 17.8778 27.6472 18.0816C27.5454 18.1857 27.4833 18.3289 27.4833 18.4726C27.4833 18.6158 27.5454 18.7591 27.6472 18.8637C27.7546 18.9678 27.9015 19.0234 28.0485 19.0234Z" fill="white"/>
<path d="M19.5707 26.7188H5.44092C5.12894 26.7188 4.87573 26.9636 4.87573 27.2666C4.87573 27.5696 5.12894 27.8145 5.44092 27.8145H19.5707C19.8827 27.8145 20.1359 27.5696 20.1359 27.2666C20.1359 26.9636 19.8827 26.7188 19.5707 26.7188Z" fill="white"/>
</svg>
