<svg width="44" height="44" viewBox="0 0 44 44" fill="none" xmlns="http://www.w3.org/2000/svg">
<g clip-path="url(#clip0)">
<path d="M24.3696 -0.000488281C15.3791 -0.000488281 8.0647 7.31385 8.0647 16.3043V18.9781L3.52478 26.7916C3.46771 26.8899 3.4375 27.0017 3.4375 27.1155V29.8292C3.4375 30.1854 3.7262 30.4738 4.08203 30.4738H8.0647L8.06503 34.8122C8.06503 36.7377 9.63138 38.3041 11.5569 38.3041H12.8681C13.224 38.3041 13.5123 38.0154 13.5123 37.6595C13.5123 37.3034 13.224 37.015 12.8678 37.015H11.5569C10.342 37.015 9.35409 36.0267 9.35409 34.8122V30.4738H11.2007C11.5566 30.4738 11.8453 30.1854 11.8453 29.8292V25.5582C11.8453 25.2024 11.5566 24.9137 11.2007 24.9137H9.77707C9.4209 24.9137 9.13254 25.2024 9.13254 25.5582C9.13254 25.9144 9.4209 26.2028 9.77707 26.2028H10.5562V29.1847H4.72656V27.6264H6.92938C7.28522 27.6264 7.57391 27.3377 7.57391 26.9819C7.57391 26.6257 7.28522 26.3374 6.92938 26.3374H5.27978L9.25808 19.49C9.31885 19.3913 9.35376 19.2755 9.35376 19.1519V16.3043C9.35376 8.02484 16.0898 1.28856 24.3696 1.28856C32.6499 1.28856 39.3859 8.02484 39.3859 16.3043V21.9989C39.3859 28.1921 35.6822 33.6534 29.9401 35.9468H28.2848C27.9287 35.9468 27.6403 36.2352 27.6403 36.5914C27.6403 36.9475 27.9287 37.2359 28.2848 37.2359H29.4202V42.71H17.54V38.3041H19.0308C19.387 38.3041 19.6753 38.0157 19.6753 37.6595C19.6753 37.3037 19.387 37.015 19.0308 37.015H16.8971H16.8954H15.4503C15.0944 37.015 14.8058 37.3034 14.8058 37.6595C14.8058 38.0154 15.0944 38.3041 15.4503 38.3041H16.2509V43.3545C16.2509 43.7107 16.5396 43.999 16.8954 43.999H30.0647C30.4205 43.999 30.7092 43.7107 30.7092 43.3545V37.0251C33.5559 35.824 35.9883 33.8515 37.7641 31.2989C39.6682 28.5613 40.6749 25.3458 40.6749 21.9989V16.3043C40.6749 7.31385 33.3605 -0.000488281 24.3696 -0.000488281Z" fill="white"/>
<path d="M15.885 15.593C15.885 17.3325 16.408 19.0039 17.398 20.4269C18.2798 21.6945 19.4729 22.6864 20.8677 23.3169V24.6472H20.8006C20.4444 24.6472 20.156 24.9356 20.156 25.2917C20.156 25.6476 20.4444 25.9363 20.8006 25.9363H20.8677V27.6943C20.8677 28.0501 21.1564 28.3388 21.5122 28.3388H21.5797V29.8299C21.5797 30.1857 21.8684 30.4744 22.2242 30.4744H26.4953C26.8511 30.4744 27.1398 30.1857 27.1398 29.8299V28.3388H27.2073C27.5631 28.3388 27.8518 28.0501 27.8518 27.6943V25.9363H27.9189C28.2751 25.9363 28.5635 25.6476 28.5635 25.2917C28.5635 24.9356 28.2751 24.6472 27.9189 24.6472H27.8518V23.3169C29.2466 22.6864 30.4397 21.6945 31.3215 20.4269C32.3111 19.0039 32.8345 17.3325 32.8345 15.593C32.8345 10.9198 29.0328 7.11816 24.3596 7.11816C19.6867 7.11816 15.885 10.9198 15.885 15.593ZM22.8688 17.6612H23.381L24.6157 18.8962C24.7366 19.017 24.9007 19.0852 25.0716 19.0852C25.2425 19.0852 25.4066 19.017 25.5275 18.8962L25.8507 18.5729V22.2447H22.8688V17.6612ZM25.8507 29.1854H22.8688V28.3388H25.8507V29.1854ZM26.5627 27.0497H22.1568V25.9363H26.5627V27.0497ZM22.1568 24.6472V23.5337H26.5627V24.6472H22.1568ZM24.3599 8.40721C28.3221 8.40721 31.5454 11.6308 31.5454 15.593C31.5454 18.5152 29.822 21.0963 27.1398 22.2198V17.0166C27.1398 17.0166 27.1398 17.0166 27.1398 17.0163V16.3046C27.1398 15.9488 26.8511 15.6601 26.4953 15.6601C26.1391 15.6601 25.8507 15.9488 25.8507 16.3046V16.7498L25.0716 17.5289L24.1038 16.5608C23.9829 16.4399 23.8188 16.3721 23.6479 16.3721H22.8688V16.3046C22.8688 15.9488 22.5804 15.6601 22.2242 15.6601C21.8684 15.6601 21.5797 15.9488 21.5797 16.3046V22.2198C18.8975 21.0963 17.1741 18.5152 17.1741 15.593C17.1741 11.6308 20.3974 8.40721 24.3599 8.40721Z" fill="white"/>
<path d="M25.0041 5.62628V3.49096C25.0041 3.13479 24.7157 2.84644 24.3596 2.84644C24.0037 2.84644 23.715 3.13479 23.715 3.49096V5.62628C23.715 5.98245 24.0037 6.27081 24.3596 6.27081C24.7157 6.27081 25.0041 5.98245 25.0041 5.62628Z" fill="white"/>
<path d="M16.1955 6.60532C15.9438 6.35389 15.5356 6.35389 15.2838 6.60532C15.0324 6.85709 15.0324 7.26529 15.2838 7.51705L16.7941 9.02699C16.92 9.15287 17.0848 9.21598 17.2499 9.21598C17.4148 9.21598 17.5796 9.15287 17.7055 9.02699C17.9572 8.77522 17.9572 8.36736 17.7055 8.11559L16.1955 6.60532Z" fill="white"/>
<path d="M14.3049 15.0366H12.1693C11.8134 15.0366 11.5247 15.3253 11.5247 15.6811C11.5247 16.0373 11.8134 16.3257 12.1693 16.3257H14.3049C14.6608 16.3257 14.9495 16.0373 14.9495 15.6811C14.9495 15.3253 14.6608 15.0366 14.3049 15.0366Z" fill="white"/>
<path d="M16.7944 22.3354L15.2841 23.8457C15.0323 24.0975 15.0323 24.5053 15.2841 24.7571C15.41 24.883 15.5748 24.9457 15.7396 24.9457C15.9048 24.9457 16.0696 24.883 16.1955 24.7571L17.7058 23.2472C17.9576 22.9954 17.9576 22.5872 17.7058 22.3354C17.454 22.0837 17.0458 22.084 16.7944 22.3354Z" fill="white"/>
<path d="M31.014 22.3356C30.7623 22.5873 30.7623 22.9952 31.014 23.247L32.524 24.7572C32.6499 24.8831 32.815 24.9459 32.9798 24.9459C33.1447 24.9459 33.3098 24.8831 33.4357 24.7572C33.6875 24.5055 33.6875 24.0973 33.4357 23.8455L31.9254 22.3356C31.6737 22.0838 31.2658 22.0838 31.014 22.3356Z" fill="white"/>
<path d="M36.5503 16.3257C36.9064 16.3257 37.1948 16.037 37.1948 15.6811C37.1948 15.325 36.9064 15.0366 36.5503 15.0366H34.4146C34.0584 15.0366 33.7701 15.325 33.7701 15.6811C33.7701 16.037 34.0584 16.3257 34.4146 16.3257H36.5503Z" fill="white"/>
<path d="M32.524 6.60728L31.0137 8.11755C30.7622 8.36932 30.7622 8.77719 31.014 9.02895C31.1396 9.15484 31.3047 9.21761 31.4695 9.21761C31.6344 9.21761 31.7995 9.15484 31.9254 9.02895L33.4354 7.51868C33.6871 7.26691 33.6871 6.85905 33.4354 6.60728C33.1839 6.35552 32.7757 6.35552 32.524 6.60728Z" fill="white"/>
</g>
<defs>
<clipPath id="clip0">
<rect width="44" height="43.9995" fill="white" transform="translate(0 -0.000488281)"/>
</clipPath>
</defs>
</svg>
