<svg width="44" height="44" viewBox="0 0 44 44" fill="none" xmlns="http://www.w3.org/2000/svg">
<g clip-path="url(#clip0)">
<path d="M44.0001 14.1822C44.0001 12.2567 42.4338 10.6904 40.5082 10.6904H36.1697V8.4876C36.1697 8.13177 35.8814 7.84308 35.5252 7.84308H34.0341V4.21662C34.0341 3.86079 33.7457 3.5721 33.3895 3.5721H28.3394V2.79296C28.3394 2.43713 28.0507 2.14844 27.6948 2.14844H16.3051C15.9492 2.14844 15.6606 2.43713 15.6606 2.79296V3.5721H10.6104C10.2542 3.5721 9.96585 3.86079 9.96585 4.21662V7.84308H8.4747C8.11887 7.84308 7.83017 8.13177 7.83017 8.4876V10.6904H3.492C1.56647 10.6904 0.00012207 12.2567 0.00012207 14.1822V22.7245C0.00012207 23.0807 0.288818 23.3691 0.644653 23.3691H1.42346V38.3851C1.42346 40.3106 2.99014 41.877 4.91534 41.877H39.0846C41.0101 41.877 42.5764 40.3106 42.5764 38.3851V23.3691H43.3556C43.5265 23.3691 43.6906 23.3013 43.8115 23.1804C43.9323 23.0596 44.0001 22.8957 44.0001 22.7245V14.1822ZM34.8807 9.13213V10.6904H31.8987V9.13213H34.8807ZM16.9496 3.43749H27.0503V4.99576H16.9496V3.43749ZM9.11923 9.13213H12.1015V10.6904H9.11923V9.13213ZM41.2874 38.3851C41.2874 39.6 40.2991 40.5879 39.0846 40.5879H4.91534C3.70081 40.5879 2.71252 39.6 2.71252 38.3851V23.3691H7.11816V24.9273H6.33902C5.98318 24.9273 5.69449 25.216 5.69449 25.5719V28.4192C5.69449 28.775 5.98318 29.0637 6.33902 29.0637H7.11816V31.2665C7.11816 31.5109 7.25613 31.7338 7.47467 31.8429L10.322 33.2669C10.4127 33.3125 10.5114 33.335 10.6104 33.335C10.7091 33.335 10.8078 33.3125 10.8984 33.2669L13.7458 31.8429C13.964 31.7338 14.1023 31.5109 14.1023 31.2665V29.0637H14.8811C15.2372 29.0637 15.5256 28.775 15.5256 28.4192V25.5719C15.5256 25.216 15.2372 24.9273 14.8811 24.9273H14.1023V23.3691H18.5079V26.2839C18.5079 26.6397 18.7966 26.9284 19.1524 26.9284H24.8475C25.2033 26.9284 25.492 26.6397 25.492 26.2839V23.3691H29.8976V24.9273H29.1185C28.7623 24.9273 28.474 25.216 28.474 25.5719V28.4192C28.474 28.775 28.7623 29.0637 29.1185 29.0637H29.8976V31.2665C29.8976 31.5105 30.0353 31.7338 30.2538 31.8429L33.1012 33.2669C33.1918 33.3125 33.2908 33.335 33.3895 33.335C33.4882 33.335 33.5869 33.3125 33.6779 33.2669L36.5252 31.8429C36.7434 31.7338 36.8814 31.5109 36.8814 31.2665V29.0637H37.6606C38.0167 29.0637 38.3051 28.775 38.3051 28.4192V25.5719C38.3051 25.216 38.0167 24.9273 37.6606 24.9273H36.8814V23.3691H41.2874V38.3851ZM8.40756 22.7262C8.40756 22.7259 8.40756 22.7252 8.40756 22.7245C8.40756 22.7242 8.40756 22.7235 8.40756 22.7229V20.5217H12.8132V24.9273H8.40756V22.7262ZM6.98389 19.2327V17.6741H14.2369V19.2327H6.98389ZM14.2369 26.2164V27.7747H6.98389V26.2164H14.2369ZM12.8132 29.0637V30.8684L10.6104 31.9701L8.40756 30.8684V29.0637H12.8132ZM21.3556 23.3691V24.1482C21.3556 24.5044 21.644 24.7927 22.0001 24.7927C22.356 24.7927 22.6447 24.5044 22.6447 24.1482V23.3691H24.2029V25.6393H19.797V23.3691H21.3556ZM19.797 22.08V21.2337H24.2029V22.08H19.797ZM31.1867 22.7262C31.1867 22.7259 31.1867 22.7252 31.1867 22.7245C31.1867 22.7242 31.1867 22.7235 31.1867 22.7229V20.5217H35.5923V24.9273H31.1867V22.7262ZM29.763 19.2327V17.6741H37.016V19.2327H29.763ZM37.016 26.2164V27.7747H29.763V26.2164H37.016ZM35.5923 29.0637V30.8684L33.3895 31.9701L31.1867 30.8684V29.0637H35.5923ZM41.9346 22.08C41.9336 22.08 41.9329 22.08 41.9319 22.08C41.9312 22.08 41.9302 22.08 41.9296 22.08H36.8814V20.5217H37.6606C38.0167 20.5217 38.3051 20.233 38.3051 19.8772V17.6744H38.3726C38.7287 17.6744 39.0171 17.3857 39.0171 17.0299C39.0171 16.6737 38.7287 16.3854 38.3726 16.3854H28.4068C28.0507 16.3854 27.7623 16.6737 27.7623 17.0299C27.7623 17.3857 28.0507 17.6744 28.4068 17.6744H28.474V19.8772C28.474 20.233 28.7627 20.5217 29.1185 20.5217H29.8976V22.08H25.492V20.5892C25.492 20.233 25.2033 19.9447 24.8475 19.9447H19.1524C18.7966 19.9447 18.5079 20.233 18.5079 20.5892V22.08H14.1023V20.5217H14.8814C15.2372 20.5217 15.5259 20.233 15.5259 19.8772V17.6744H15.5934C15.9492 17.6744 16.2379 17.3857 16.2379 17.0299C16.2379 16.6737 15.9492 16.3854 15.5934 16.3854H5.62735C5.27151 16.3854 4.98282 16.6737 4.98282 17.0299C4.98282 17.3857 5.27151 17.6744 5.62735 17.6744H5.69482V19.8772C5.69482 20.233 5.98318 20.5217 6.33936 20.5217H7.1185V22.08H1.28918V14.1822C1.28918 12.9677 2.27747 11.9794 3.492 11.9794H15.5934C15.9492 11.9794 16.2379 11.6908 16.2379 11.3349C16.2379 10.9791 15.9492 10.6904 15.5934 10.6904H13.3906V8.4876C13.3906 8.13177 13.1019 7.84308 12.7461 7.84308H11.2549V4.86115H15.6606V5.64028C15.6606 5.99645 15.9492 6.28481 16.3051 6.28481H27.6948C28.0507 6.28481 28.3394 5.99645 28.3394 5.64028V4.86115H32.7453V7.84308H31.2542C30.898 7.84308 30.6096 8.13177 30.6096 8.4876V10.6904H18.1756C17.8197 10.6904 17.531 10.9791 17.531 11.3349C17.531 11.6908 17.8197 11.9794 18.1756 11.9794H40.5082C41.7228 11.9794 42.7111 12.9677 42.7111 14.1822V22.08H41.9346Z" fill="white"/>
<path d="M4.27132 38.3845C4.27132 38.7407 4.55968 39.029 4.91585 39.029H39.0848C39.4406 39.029 39.7293 38.7407 39.7293 38.3845C39.7293 38.0287 39.4406 37.74 39.0848 37.74H4.91585C4.55968 37.74 4.27132 38.0287 4.27132 38.3845Z" fill="white"/>
</g>
<defs>
<clipPath id="clip0">
<rect width="44" height="43.9995" fill="white" transform="translate(0.00012207 -0.000488281)"/>
</clipPath>
</defs>
</svg>
