<svg width="43" height="44" viewBox="0 0 43 44" fill="none" xmlns="http://www.w3.org/2000/svg">
<path d="M28.6293 2.92431L28.4548 3.89287C31.4467 5.00709 34.1541 6.83218 36.3396 9.24791C39.6825 12.944 41.5235 17.7258 41.5235 22.7138C41.5235 22.7939 41.4589 22.8584 41.379 22.8584C41.2992 22.8584 41.2344 22.7937 41.2344 22.7138C41.2344 12.8174 34.0047 4.52422 24.2985 3.12949L23.7273 3.04743V3.62441V4.91563C23.7273 4.99576 23.6628 5.06024 23.5828 5.06024H19.3118C19.232 5.06024 19.1672 4.99559 19.1672 4.91563V3.62441V3.04743L18.5961 3.12949C8.88992 4.52422 1.65979 12.8174 1.65979 22.7138C1.65979 22.7937 1.59507 22.8584 1.51526 22.8584C1.43545 22.8584 1.37073 22.7937 1.37073 22.7138C1.37073 17.7258 3.2117 12.944 6.5549 9.24794C8.74004 6.83222 11.4475 5.00745 14.4394 3.89321L14.2649 2.92465H6.32744H5.96556L5.85248 3.26841C5.64614 3.89566 5.05503 4.34815 4.36262 4.34815C3.49836 4.34815 2.79441 3.64433 2.79441 2.78004C2.79441 1.91565 3.49846 1.2116 4.36262 1.2116C5.05499 1.2116 5.6461 1.66405 5.85246 2.29162L5.96551 2.63544H6.32744H18.6672H19.1672V2.13544V0.644117C19.1672 0.564163 19.232 0.499511 19.3118 0.499511H23.5828C23.6628 0.499511 23.7273 0.563994 23.7273 0.644117V2.1351V2.6351H24.2273H36.5671H36.929L37.0421 2.29134C37.2484 1.66405 37.8396 1.2116 38.5316 1.2116C39.3959 1.2116 40.0998 1.91542 40.0998 2.77971C40.0998 3.64415 39.396 4.34815 38.5316 4.34815C37.8392 4.34815 37.2481 3.8957 37.0418 3.26813L36.9287 2.92431H36.5668H28.6293ZM19.4563 4.27103V4.77103H19.9563H22.9383H23.4383V4.27103V2.89184V2.88949V2.78139V2.77971V2.77803V1.28872V0.788723H22.9383H19.9563H19.4563V1.28872V2.8905V2.89084V4.27103ZM39.8108 2.77971C39.8108 2.07408 39.2373 1.50081 38.5316 1.50081C37.8259 1.50081 37.2525 2.07408 37.2525 2.77971C37.2525 3.48554 37.8257 4.05894 38.5316 4.05894C39.2375 4.05894 39.8108 3.48554 39.8108 2.77971ZM3.08347 2.78004C3.08347 3.48567 3.65688 4.05894 4.36262 4.05894C5.06836 4.05894 5.64177 3.48567 5.64177 2.78004C5.64177 2.07422 5.0685 1.50081 4.36262 1.50081C3.65674 1.50081 3.08347 2.07422 3.08347 2.78004Z" fill="white" stroke="white" stroke-width="0.999998"/>
<mask id="path-2-inside-1" fill="white">
<path d="M23.4337 7.44833C23.3199 7.24423 23.1048 7.11768 22.8711 7.11768H20.0234C19.7901 7.11768 19.5746 7.24423 19.4608 7.44833L10.9184 22.7528C10.865 22.8488 10.8368 22.9569 10.8368 23.067V23.779C10.8368 23.9009 10.8714 24.02 10.9365 24.1231L14.5831 29.8967H12.193C11.8372 29.8967 11.5485 30.185 11.5485 30.5412C11.5485 30.897 11.8372 31.1857 12.193 31.1857H12.2605V33.3885C12.2605 33.7447 12.5488 34.033 12.905 34.033H13.6838V36.2362C13.6838 36.592 13.9725 36.8807 14.3284 36.8807H15.1078V39.0812V39.0835V39.0862V43.3545C15.1078 43.7107 15.3965 43.999 15.7524 43.999H27.1422C27.498 43.999 27.7867 43.7107 27.7867 43.3545V36.8807H28.5658C28.9217 36.8807 29.2104 36.592 29.2104 36.2362V34.033H29.9895C30.3454 34.033 30.6341 33.7447 30.6341 33.3885V31.1857H30.7015C31.0574 31.1857 31.3461 30.897 31.3461 30.5412C31.3461 30.185 31.0574 29.8967 30.7015 29.8967H29.9912C29.9905 29.8967 29.9902 29.8967 29.9895 29.8967C29.9889 29.8967 29.9885 29.8967 29.9878 29.8967H28.3114L31.958 24.1231C32.0232 24.02 32.0577 23.9009 32.0577 23.779V23.067C32.0577 22.9569 32.0295 22.8488 31.9758 22.7528L23.4337 7.44833ZM21.4474 21.22C21.8771 21.22 22.2266 21.5695 22.2266 21.9992C22.2266 22.4289 21.8771 22.7783 21.4474 22.7783C21.0177 22.7783 20.6683 22.4289 20.6683 21.9992C20.6683 21.5695 21.0177 21.22 21.4474 21.22ZM27.9213 35.5913H20.8496C20.4937 35.5913 20.205 35.88 20.205 36.2358C20.205 36.592 20.4937 36.8804 20.8496 36.8804H26.4976V38.4386H25.7181C25.3623 38.4386 25.0736 38.727 25.0736 39.0832C25.0736 39.4393 25.3623 39.7277 25.7181 39.7277H26.4973V42.71H16.3969V39.728H17.1761C17.5319 39.728 17.8206 39.4397 17.8206 39.0835C17.8206 38.7273 17.5319 38.439 17.1761 38.439H16.3969V36.8804H18.0955C18.4517 36.8804 18.7401 36.592 18.7401 36.2358C18.7401 35.88 18.4517 35.5913 18.0955 35.5913H14.9729V34.033H27.9213V35.5913ZM29.345 32.744H13.5495V31.1857H27.1401H27.1415H27.1428H29.345V32.744ZM30.7687 23.5924L29.4843 25.6257H27.8538C27.498 25.6257 27.2093 25.914 27.2093 26.2702C27.2093 26.6264 27.498 26.9147 27.8538 26.9147H28.6702L26.7867 29.8967H22.0916V28.4055C22.0916 28.0497 21.8033 27.761 21.4471 27.761C21.0913 27.761 20.8026 28.0497 20.8026 28.4055V29.8967H16.1075L14.2243 26.9147H15.0404C15.3965 26.9147 15.6849 26.6264 15.6849 26.2702C15.6849 25.914 15.3965 25.6257 15.0404 25.6257H13.4099L12.1259 23.5924V23.2345L20.4021 8.40673H20.8026V20.0344C19.9771 20.306 19.3789 21.0838 19.3789 21.9989C19.3789 23.1395 20.3067 24.0674 21.4471 24.0674C22.5878 24.0674 23.5156 23.1395 23.5156 21.9989C23.5156 21.0838 22.9174 20.3056 22.092 20.0344V8.40673H22.4925L30.7687 23.2345V23.5924Z"/>
</mask>
<path d="M23.4337 7.44833C23.3199 7.24423 23.1048 7.11768 22.8711 7.11768H20.0234C19.7901 7.11768 19.5746 7.24423 19.4608 7.44833L10.9184 22.7528C10.865 22.8488 10.8368 22.9569 10.8368 23.067V23.779C10.8368 23.9009 10.8714 24.02 10.9365 24.1231L14.5831 29.8967H12.193C11.8372 29.8967 11.5485 30.185 11.5485 30.5412C11.5485 30.897 11.8372 31.1857 12.193 31.1857H12.2605V33.3885C12.2605 33.7447 12.5488 34.033 12.905 34.033H13.6838V36.2362C13.6838 36.592 13.9725 36.8807 14.3284 36.8807H15.1078V39.0812V39.0835V39.0862V43.3545C15.1078 43.7107 15.3965 43.999 15.7524 43.999H27.1422C27.498 43.999 27.7867 43.7107 27.7867 43.3545V36.8807H28.5658C28.9217 36.8807 29.2104 36.592 29.2104 36.2362V34.033H29.9895C30.3454 34.033 30.6341 33.7447 30.6341 33.3885V31.1857H30.7015C31.0574 31.1857 31.3461 30.897 31.3461 30.5412C31.3461 30.185 31.0574 29.8967 30.7015 29.8967H29.9912C29.9905 29.8967 29.9902 29.8967 29.9895 29.8967C29.9889 29.8967 29.9885 29.8967 29.9878 29.8967H28.3114L31.958 24.1231C32.0232 24.02 32.0577 23.9009 32.0577 23.779V23.067C32.0577 22.9569 32.0295 22.8488 31.9758 22.7528L23.4337 7.44833ZM21.4474 21.22C21.8771 21.22 22.2266 21.5695 22.2266 21.9992C22.2266 22.4289 21.8771 22.7783 21.4474 22.7783C21.0177 22.7783 20.6683 22.4289 20.6683 21.9992C20.6683 21.5695 21.0177 21.22 21.4474 21.22ZM27.9213 35.5913H20.8496C20.4937 35.5913 20.205 35.88 20.205 36.2358C20.205 36.592 20.4937 36.8804 20.8496 36.8804H26.4976V38.4386H25.7181C25.3623 38.4386 25.0736 38.727 25.0736 39.0832C25.0736 39.4393 25.3623 39.7277 25.7181 39.7277H26.4973V42.71H16.3969V39.728H17.1761C17.5319 39.728 17.8206 39.4397 17.8206 39.0835C17.8206 38.7273 17.5319 38.439 17.1761 38.439H16.3969V36.8804H18.0955C18.4517 36.8804 18.7401 36.592 18.7401 36.2358C18.7401 35.88 18.4517 35.5913 18.0955 35.5913H14.9729V34.033H27.9213V35.5913ZM29.345 32.744H13.5495V31.1857H27.1401H27.1415H27.1428H29.345V32.744ZM30.7687 23.5924L29.4843 25.6257H27.8538C27.498 25.6257 27.2093 25.914 27.2093 26.2702C27.2093 26.6264 27.498 26.9147 27.8538 26.9147H28.6702L26.7867 29.8967H22.0916V28.4055C22.0916 28.0497 21.8033 27.761 21.4471 27.761C21.0913 27.761 20.8026 28.0497 20.8026 28.4055V29.8967H16.1075L14.2243 26.9147H15.0404C15.3965 26.9147 15.6849 26.6264 15.6849 26.2702C15.6849 25.914 15.3965 25.6257 15.0404 25.6257H13.4099L12.1259 23.5924V23.2345L20.4021 8.40673H20.8026V20.0344C19.9771 20.306 19.3789 21.0838 19.3789 21.9989C19.3789 23.1395 20.3067 24.0674 21.4471 24.0674C22.5878 24.0674 23.5156 23.1395 23.5156 21.9989C23.5156 21.0838 22.9174 20.3056 22.092 20.0344V8.40673H22.4925L30.7687 23.2345V23.5924Z" fill="white" stroke="white" stroke-width="2" mask="url(#path-2-inside-1)"/>
</svg>
