<svg width="114" height="29" viewBox="0 0 114 29" fill="none" xmlns="http://www.w3.org/2000/svg">
<rect x="0.000610352" y="14.0012" width="32" height="1.54224" rx="0.771118" fill="#E3B873"/>
<rect x="82.0006" y="14.0012" width="32" height="1.54224" rx="0.771118" fill="#E3B873"/>
<path d="M67.4056 22.1414C66.8241 21.7321 66.1529 21.5123 65.475 21.4764C62.92 19.8033 61.2463 18.5475 60.2692 17.5703L57.2675 14.5686L59.089 12.5297C59.4343 12.7245 59.805 12.8529 60.1759 12.9059C60.4557 12.9525 60.6423 12.9525 60.8289 12.9525C61.2021 12.9525 61.2953 12.9525 61.6685 13.279C61.4819 13.4189 61.3886 13.6522 61.3886 13.8854C61.3886 14.1185 61.4819 14.3985 61.6685 14.585L63.301 16.2176C63.5342 16.4974 63.9073 16.6374 64.2805 16.6374C64.6537 16.6374 65.0268 16.4974 65.26 16.1709L68.5717 12.8592C68.8516 12.626 68.9915 12.2529 68.9915 11.8797C68.9915 11.5065 68.8516 11.1801 68.5717 10.9002L66.9392 9.26765C66.7526 9.08109 66.5194 8.98779 66.2861 8.98779C66.0529 8.98779 65.8197 9.12772 65.6331 9.26765C65.26 8.94116 65.26 8.84786 65.26 8.47469C65.26 8.28814 65.26 8.0549 65.1667 7.77504C65.0734 7.12201 64.7469 6.46904 64.2338 5.95594L62.5546 4.27677C61.5751 3.29725 61.1087 2.83084 59.8493 2.27111C57.1441 1.01174 54.3921 1.24497 50.3808 3.06407C50.1475 3.15738 50.0543 3.34394 50.1009 3.57717C50.1475 3.81041 50.3341 3.95034 50.5673 3.95034H51.1737C53.226 3.95034 54.2987 3.95034 56.1645 5.81606C56.9814 6.63302 57.005 7.88567 56.2731 8.8073C56.1744 8.82217 56.0993 8.86644 56.0246 8.94116L53.9526 11.2537L52.3864 9.6875C50.6649 7.96602 49.4541 6.3373 48.5222 4.52373C48.4733 3.60603 48.1051 2.74743 47.4423 2.08461C46.6494 1.29171 45.5299 0.918542 44.4105 1.01185C44.2706 1.05847 44.1306 1.15178 44.084 1.24508C43.9907 1.38501 43.9907 1.57157 44.084 1.7115L45.39 4.0437C45.1101 4.65005 44.4571 5.02321 43.8041 4.97659L42.4515 2.73764C42.4048 2.59771 42.2182 2.50441 42.0783 2.50441C41.9384 2.45778 41.7985 2.55103 41.7051 2.69096C40.5857 4.37013 41.0055 6.60902 42.6847 7.77509C43.2632 8.18833 43.9149 8.41812 44.575 8.46524C44.5824 8.46835 44.5893 8.47218 44.597 8.47475C46.4161 9.40764 48.0486 10.6203 49.7744 12.3462L51.4803 14.0133L41.5653 25.0799C41.1921 25.4531 41.0056 25.9661 41.0056 26.4792C41.0056 26.9923 41.1921 27.4588 41.5653 27.8319L42.2183 28.4849C42.5915 28.8114 43.0579 28.998 43.5243 28.998C43.9907 28.998 44.5038 28.8115 44.877 28.4383L54.7806 17.3525L57.6572 20.229C58.6357 21.2076 59.8937 22.9312 61.5705 25.446C61.6306 26.3437 61.998 27.1819 62.648 27.8319C63.3476 28.5316 64.2805 28.9047 65.26 28.9047C65.3999 28.9047 65.5399 28.9047 65.6332 28.9047C65.7731 28.9047 65.913 28.8114 66.0063 28.6715C66.0996 28.5316 66.0996 28.345 66.0063 28.2051L64.6537 25.9196C64.9802 25.3132 65.5866 24.9401 66.2862 24.9867L67.5922 27.2256C67.6388 27.3655 67.8254 27.4588 67.9654 27.4588C68.1519 27.4122 68.2918 27.3655 68.3851 27.2256C69.5045 25.5463 69.0381 23.3075 67.4056 22.1414ZM56.7709 5.06984C55.2784 3.62391 54.1589 3.15743 52.8996 3.0175C55.5582 2.17792 57.5172 2.22454 59.4762 3.11081C60.5957 3.57723 60.9688 3.95039 61.9483 4.92991L63.6275 6.60908C64.0007 6.98224 64.2338 7.44866 64.2805 7.91508C64.3271 8.14831 64.3271 8.33487 64.3271 8.4748C64.3271 8.9879 64.3738 9.36101 64.9335 9.92073C65.12 10.1073 65.3999 10.2006 65.6331 10.2006C65.913 10.2006 66.1462 10.1073 66.2861 9.92073L67.9187 11.5533C68.012 11.6466 68.0586 11.7398 68.0586 11.8798C68.0586 12.0197 68.012 12.113 67.9187 12.2063L64.607 15.518C64.4204 15.7045 64.1406 15.7045 63.954 15.518L62.3214 13.8854C62.508 13.7455 62.6013 13.5123 62.5547 13.2324C62.5547 12.9992 62.4614 12.7193 62.2748 12.5327C61.7151 11.973 61.3419 11.9264 60.8289 11.9264C60.689 11.9264 60.5024 11.9264 60.2692 11.8798C59.7561 11.8331 59.3363 11.5999 58.9632 11.2267L56.9576 9.22108C57.9836 7.96176 57.8904 6.18928 56.7709 5.06984ZM42.125 3.95039L43.1045 5.62956C43.1978 5.76949 43.3377 5.8628 43.4777 5.8628H43.7109C44.7837 5.90942 45.7632 5.3497 46.2296 4.41686L46.3229 4.18363C46.4162 4.0437 46.4162 3.90377 46.3229 3.76384L45.2967 1.99136C45.8565 2.08467 46.3696 2.36453 46.7893 2.78432C47.2702 3.30529 47.5781 3.96417 47.5963 4.67191C47.5873 4.70782 47.5822 4.74647 47.5822 4.79003C47.5822 5.00605 47.5562 5.21677 47.5079 5.41988C47.3319 6.09527 46.91 6.68412 46.3229 7.0756C45.39 7.68195 44.1306 7.68195 43.1978 7.02898C42.2183 6.32921 41.7985 5.06984 42.125 3.95039ZM50.4274 11.6932C49.0282 10.2473 47.6289 9.12783 46.1363 8.24156C46.3695 8.14826 46.6494 8.00833 46.8825 7.8684C47.5822 7.40198 48.0486 6.79558 48.3285 6.0493C49.2147 7.54191 50.3341 8.94122 51.7334 10.3405L53.3355 11.9426L52.0791 13.3449L50.4274 11.6932ZM44.2239 27.7386C43.8508 28.1118 43.2444 28.1584 42.8713 27.7852L42.2182 27.1789C42.0317 26.9923 41.9384 26.7591 41.9384 26.5259C41.9384 26.246 42.0317 26.0128 42.2649 25.7796L42.529 25.484L43.1977 26.1528C43.291 26.2461 43.3843 26.2927 43.5242 26.2927C43.6642 26.2927 43.7575 26.2461 43.8507 26.1528C44.0373 25.9662 44.0373 25.6863 43.8507 25.4997L43.1454 24.7944L43.7618 24.1047L44.5037 24.8467C44.597 24.94 44.6903 24.9866 44.8302 24.9866C44.9701 24.9866 45.0635 24.94 45.1567 24.8467C45.3433 24.6601 45.3433 24.3803 45.1567 24.1937L44.3782 23.4151L56.3758 9.99201L58.3348 11.951L56.4099 14.1046C56.3549 14.1279 56.3063 14.1635 56.2579 14.212L54.3921 16.3109C54.3389 16.3642 54.3014 16.4252 54.2785 16.4893L44.2239 27.7386ZM55.4188 16.638L56.6953 15.2092L59.7094 18.2233C60.549 19.1095 61.9949 20.229 64.0938 21.6283C63.814 21.7216 63.5341 21.8615 63.2543 22.0481C62.6756 22.4098 62.2657 22.9119 61.9801 23.4671C61.9759 23.475 61.9721 23.4831 61.9679 23.4911C61.951 23.5245 61.9345 23.558 61.9184 23.5918C61.8954 23.6396 61.8735 23.688 61.8526 23.7369C61.8383 23.7699 61.824 23.803 61.8105 23.8363C61.8086 23.8411 61.8067 23.8459 61.8048 23.8507C61.7901 23.8872 61.7755 23.9238 61.7617 23.9605C61.4968 23.5719 61.2419 23.2052 60.9968 22.8597L61.6218 22.2347C61.8084 22.0481 61.8084 21.7683 61.6218 21.5817C61.4352 21.3951 61.1554 21.3951 60.9688 21.5817L60.4488 22.1016C60.255 21.8386 60.0678 21.5905 59.8872 21.3573L60.3158 20.9286C60.5024 20.7421 60.5024 20.4622 60.3158 20.2756C60.1293 20.0891 59.8494 20.0891 59.6628 20.2756L59.3067 20.6317C58.9639 20.2185 58.6477 19.8669 58.3568 19.576L55.4188 16.638ZM67.9186 25.9661L66.9391 24.287C66.8458 24.147 66.7059 24.0537 66.566 24.0537H66.3327C65.2599 23.9604 64.2804 24.5668 63.814 25.4997L63.7207 25.7329C63.6274 25.8728 63.6274 26.0128 63.7207 26.1527L64.7468 27.9252C64.1871 27.8319 63.674 27.552 63.2542 27.1322C62.7824 26.6211 62.4775 25.9772 62.4488 25.2849C62.4568 25.2507 62.4613 25.2141 62.4613 25.1732C62.4613 24.5823 62.6489 24.0291 62.9758 23.5605C63.1767 23.2809 63.4279 23.0362 63.7206 22.841C64.187 22.5146 64.7001 22.3746 65.2599 22.3746C65.8196 22.3746 66.3793 22.5612 66.8457 22.8877C67.8254 23.5873 68.2452 24.8467 67.9186 25.9661Z" fill="#E3B873"/>
</svg>
